<?xml version="1.0" standalone="no"?>
<!DOCTYPE svg PUBLIC "-//W3C//DTD SVG 20010904//EN"
 "http://www.w3.org/TR/2001/REC-SVG-20010904/DTD/svg10.dtd">
<svg version="1.0" xmlns="http://www.w3.org/2000/svg"
 width="2560.000000pt" height="1280.000000pt" viewBox="0 0 2560.000000 1280.000000"
 preserveAspectRatio="xMidYMid meet">

<g transform="translate(0.000000,1280.000000) scale(0.100000,-0.100000)"
fill="#000000" stroke="none">
<path d="M7300 9614 c-195 -42 -359 -203 -405 -395 -45 -192 13 -389 154 -521
76 -72 142 -111 226 -133 78 -20 226 -19 296 1 258 76 426 332 389 594 -19
133 -71 232 -172 325 -133 123 -305 169 -488 129z"/>
<path d="M15333 9515 c-35 -8 -91 -28 -125 -46 -79 -42 -184 -146 -220 -219
-60 -121 -58 -74 -58 -1266 0 -1122 2 -1207 41 -1399 110 -546 505 -1054 1023
-1315 273 -137 547 -200 876 -200 537 0 974 178 1347 549 321 318 499 692 542
1135 7 70 11 503 11 1205 0 1207 1 1174 -62 1294 -47 88 -138 176 -229 221
-293 144 -655 -13 -740 -322 -18 -63 -19 -127 -19 -1214 0 -762 -4 -1173 -11
-1225 -44 -319 -281 -597 -592 -692 -146 -44 -375 -45 -522 0 -244 74 -459
272 -555 512 -61 152 -60 137 -60 1396 0 1252 2 1195 -58 1319 -35 74 -139
177 -219 220 -110 58 -242 75 -370 47z"/>
<path d="M3551 9479 c-136 -27 -287 -143 -351 -268 -63 -125 -60 -29 -60
-1931 0 -1451 3 -1746 14 -1801 56 -264 313 -440 583 -400 220 32 399 206 433
421 6 39 10 281 10 598 l0 532 259 0 c142 0 278 3 303 6 l44 6 400 -678 c352
-599 407 -687 464 -745 92 -93 225 -149 355 -149 114 0 270 67 358 154 131
129 181 346 120 516 -11 30 -169 309 -352 619 l-332 563 91 94 c191 198 339
486 401 784 28 134 30 369 6 507 -54 299 -203 572 -430 790 -159 151 -324 250
-531 318 -212 69 -211 69 -1016 71 -399 1 -745 -2 -769 -7z m1264 -724 c187
-40 355 -175 446 -360 104 -210 88 -482 -39 -676 -93 -141 -239 -250 -383
-284 -49 -11 -132 -15 -361 -15 l-298 0 0 675 0 675 283 0 c210 0 300 -4 352
-15z"/>
<path d="M9385 8380 c-329 -38 -590 -150 -789 -340 -137 -130 -224 -279 -268
-456 -29 -118 -31 -355 -4 -453 38 -140 98 -242 205 -354 153 -160 362 -277
706 -397 141 -49 283 -115 341 -158 107 -79 131 -260 47 -353 -74 -82 -179
-113 -378 -113 -150 0 -221 11 -438 66 -147 37 -162 39 -219 29 -122 -21 -209
-84 -260 -189 -31 -62 -33 -74 -33 -167 0 -86 3 -106 24 -145 63 -120 138
-171 311 -214 514 -126 1076 -93 1435 86 282 140 458 349 527 625 32 128 32
353 0 472 -94 349 -354 586 -827 756 -299 107 -423 173 -480 253 -28 40 -30
51 -30 127 0 76 3 87 30 127 88 127 343 160 650 83 118 -29 181 -31 252 -7
268 93 314 459 77 616 -46 30 -184 68 -336 91 -124 19 -432 27 -543 15z"/>
<path d="M19299 8317 c-24 -13 -57 -43 -74 -66 l-30 -43 -3 -2016 c-3 -2227
-6 -2096 60 -2212 17 -30 59 -83 94 -117 229 -225 607 -178 785 98 69 108 69
107 69 745 0 385 3 574 10 574 6 0 42 -16 80 -35 253 -127 523 -180 798 -156
272 24 493 103 717 255 115 77 318 280 408 406 77 108 173 297 211 415 87 268
107 574 57 865 -95 552 -507 1046 -1024 1229 -168 59 -270 75 -487 75 -272 1
-430 -34 -657 -144 -56 -28 -105 -50 -108 -50 -3 0 -5 11 -5 24 0 61 -47 126
-115 157 -37 17 -71 19 -391 19 -348 0 -351 0 -395 -23z m1576 -747 c166 -16
256 -50 363 -139 167 -139 279 -375 303 -643 27 -296 -49 -583 -196 -745 -45
-50 -75 -72 -148 -108 -119 -58 -188 -76 -317 -82 -122 -6 -202 8 -328 57
-158 61 -284 166 -334 279 -19 41 -20 64 -15 490 4 489 6 501 68 629 67 138
215 233 404 261 84 12 78 12 200 1z"/>
<path d="M12461 8319 c-244 -23 -496 -106 -696 -229 -335 -206 -589 -513 -709
-859 -67 -193 -80 -277 -80 -531 0 -249 13 -339 76 -525 167 -495 633 -921
1145 -1049 207 -51 201 -51 969 -51 l720 0 76 38 c145 71 212 179 212 342 1
78 -3 98 -26 148 -38 80 -115 158 -191 193 l-62 29 -660 5 c-701 6 -673 4
-815 55 -150 53 -324 189 -417 325 -28 42 -93 163 -93 174 0 3 532 7 1183 8
l1182 3 56 26 c65 31 119 82 151 142 21 39 23 55 22 197 0 105 -6 184 -18 245
-83 426 -334 791 -721 1050 -229 154 -471 238 -760 264 -126 12 -421 12 -544
0z m512 -778 c162 -43 350 -162 451 -286 50 -61 120 -175 131 -212 l6 -23
-820 0 c-619 0 -821 3 -821 12 0 6 16 41 36 77 122 222 343 387 594 442 113
25 310 20 423 -10z"/>
<path d="M7300 8234 c-30 -8 -80 -26 -110 -41 -72 -35 -188 -151 -223 -223
-59 -123 -57 -72 -57 -1307 0 -788 3 -1148 11 -1185 35 -167 173 -322 337
-379 31 -11 94 -23 139 -26 156 -11 286 34 398 138 75 71 115 130 147 219 l23
65 3 1110 c2 726 -1 1138 -7 1190 -27 206 -195 395 -391 439 -85 20 -197 19
-270 0z"/>
</g>
</svg>
